<?xml version="1.0" encoding="UTF-8" standalone="no"?>
<!-- Created with Inkscape (http://www.inkscape.org/) -->

<svg
   width="17in"
   height="11in"
   viewBox="0 0 431.79999 279.4"
   version="1.1"
   id="svg5"
   xml:space="preserve"
   inkscape:version="1.2 (1:1.2+202206011327+fc4e4096c5)"
   sodipodi:docname="parking-tickets-toronto.svg"
   inkscape:export-filename="parking-tickets-toronto.png"
   inkscape:export-xdpi="150"
   inkscape:export-ydpi="150"
   xmlns:inkscape="http://www.inkscape.org/namespaces/inkscape"
   xmlns:sodipodi="http://sodipodi.sourceforge.net/DTD/sodipodi-0.dtd"
   xmlns:xlink="http://www.w3.org/1999/xlink"
   xmlns="http://www.w3.org/2000/svg"
   xmlns:svg="http://www.w3.org/2000/svg"><sodipodi:namedview
     id="namedview7"
     pagecolor="#ffffff"
     bordercolor="#666666"
     borderopacity="1.0"
     inkscape:showpageshadow="2"
     inkscape:pageopacity="0.0"
     inkscape:pagecheckerboard="0"
     inkscape:deskcolor="#d1d1d1"
     inkscape:document-units="in"
     showgrid="false"
     inkscape:zoom="0.70710678"
     inkscape:cx="770.03928"
     inkscape:cy="493.56053"
     inkscape:window-width="1920"
     inkscape:window-height="1043"
     inkscape:window-x="0"
     inkscape:window-y="0"
     inkscape:window-maximized="1"
     inkscape:current-layer="layer2"><inkscape:grid
       type="xygrid"
       id="grid8443"
       units="in"
       spacingx="1.27"
       spacingy="1.27" /></sodipodi:namedview><defs
     id="defs2" /><g
     inkscape:label="base-img"
     inkscape:groupmode="layer"
     id="layer1"
     sodipodi:insensitive="true"><image
       width="431.79999"
       height="279.39999"
       preserveAspectRatio="none"
       xlink:href="Q-parking-tickets-toronto.png"
       id="image7498"
       x="7.2070311e-06"
       y="0" /></g><g
     inkscape:groupmode="layer"
     id="layer2"
     inkscape:label="above"><path
       style="fill:none;stroke:#ececec;stroke-width:0.264583px;stroke-linecap:butt;stroke-linejoin:miter;stroke-opacity:1"
       d="m 387.2611,184.14999 v -0.96216"
       id="path43608-92"
       sodipodi:nodetypes="cc" /><path
       style="fill:none;stroke:#ececec;stroke-width:0.264583px;stroke-linecap:butt;stroke-linejoin:miter;stroke-opacity:1"
       d="m 349.1611,184.14999 v -0.96216"
       id="path43608"
       sodipodi:nodetypes="cc" /><path
       style="fill:none;stroke:#ececec;stroke-width:0.264583px;stroke-linecap:butt;stroke-linejoin:miter;stroke-opacity:1"
       d="m 342.8111,184.14999 v -0.96216"
       id="path43608-67"
       sodipodi:nodetypes="cc" /><path
       style="fill:none;stroke:#ececec;stroke-width:0.264583px;stroke-linecap:butt;stroke-linejoin:miter;stroke-opacity:1"
       d="m 355.5111,184.14999 v -0.96216"
       id="path43608-8"
       sodipodi:nodetypes="cc" /><path
       style="fill:none;stroke:#ececec;stroke-width:0.264583px;stroke-linecap:butt;stroke-linejoin:miter;stroke-opacity:1"
       d="m 361.8611,184.14999 v -0.96216"
       id="path43608-6"
       sodipodi:nodetypes="cc" /><path
       style="fill:none;stroke:#ececec;stroke-width:0.264583px;stroke-linecap:butt;stroke-linejoin:miter;stroke-opacity:1"
       d="m 368.2111,184.14999 v -0.96216"
       id="path43608-2"
       sodipodi:nodetypes="cc" /><path
       style="fill:none;stroke:#ececec;stroke-width:0.264583px;stroke-linecap:butt;stroke-linejoin:miter;stroke-opacity:1"
       d="m 374.5611,184.14999 v -0.96216"
       id="path43608-4"
       sodipodi:nodetypes="cc" /><path
       style="fill:none;stroke:#ececec;stroke-width:0.264583px;stroke-linecap:butt;stroke-linejoin:miter;stroke-opacity:1"
       d="m 380.9111,184.14999 v -0.96216"
       id="path43608-7"
       sodipodi:nodetypes="cc" /><path
       style="fill:none;stroke:#ececec;stroke-width:0.264583px;stroke-linecap:butt;stroke-linejoin:miter;stroke-opacity:1"
       d="m 393.6111,184.14999 v -0.96216"
       id="path43608-9"
       sodipodi:nodetypes="cc" /><path
       style="fill:none;stroke:#ececec;stroke-width:0.264583px;stroke-linecap:butt;stroke-linejoin:miter;stroke-opacity:1"
       d="m 399.9611,184.14999 v -0.96216"
       id="path43608-3"
       sodipodi:nodetypes="cc" /><rect
       style="opacity:1;fill:none;fill-opacity:1;stroke:#ececec;stroke-width:0.635;stroke-dasharray:none;stroke-opacity:1;stop-color:#000000"
       id="rect41585"
       width="69.938934"
       height="2.628891"
       x="336.46109"
       y="184.14999" /><rect
       style="fill:#ffffff;fill-opacity:1;stroke:#4d4d4d;stroke-width:0.114401;stroke-dasharray:none;stop-color:#000000"
       id="rect7688"
       width="6.3500042"
       height="2.6288798"
       x="399.96109"
       y="184.14999" /><rect
       style="opacity:1;fill:#f1c500;fill-opacity:1;stroke:#4d4d4d;stroke-width:0.114401;stroke-dasharray:none;stop-color:#000000"
       id="rect8472"
       width="6.3499999"
       height="2.6288829"
       x="393.61108"
       y="184.14999" /><rect
       style="opacity:1;fill:#ffa325;fill-opacity:1;stroke:#4d4d4d;stroke-width:0.114401;stroke-dasharray:none;stop-color:#000000"
       id="rect8474"
       width="6.3499999"
       height="2.6288829"
       x="387.26111"
       y="184.14999" /><rect
       style="opacity:1;fill:#ff8341;fill-opacity:1;stroke:#4d4d4d;stroke-width:0.114401;stroke-dasharray:none;stop-color:#000000"
       id="rect8476"
       width="6.3499999"
       height="2.6288829"
       x="380.9111"
       y="184.14999" /><rect
       style="opacity:1;fill:#f76758;fill-opacity:1;stroke:#4d4d4d;stroke-width:0.114401;stroke-dasharray:none;stop-color:#000000"
       id="rect8478"
       width="6.3499999"
       height="2.6288829"
       x="374.5611"
       y="184.14999" /><rect
       style="fill:#e2536c;fill-opacity:1;stroke:#4d4d4d;stroke-width:0.114401;stroke-dasharray:none;stop-color:#000000"
       id="rect7688-3"
       width="6.3500042"
       height="2.6288798"
       x="368.21109"
       y="184.14999" /><rect
       style="fill:#c3487b;fill-opacity:1;stroke:#4d4d4d;stroke-width:0.114401;stroke-dasharray:none;stop-color:#000000"
       id="rect8472-1"
       width="6.3499999"
       height="2.6288829"
       x="361.86108"
       y="184.14999" /><rect
       style="fill:#9d4482;fill-opacity:1;stroke:#4d4d4d;stroke-width:0.114401;stroke-dasharray:none;stop-color:#000000"
       id="rect8474-1"
       width="6.3499999"
       height="2.6288829"
       x="355.51111"
       y="184.14999" /><rect
       style="fill:#734281;fill-opacity:1;stroke:#4d4d4d;stroke-width:0.114401;stroke-dasharray:none;stop-color:#000000"
       id="rect8476-0"
       width="6.3499999"
       height="2.6288829"
       x="349.1611"
       y="184.14999" /><rect
       style="fill:#493e77;fill-opacity:1;stroke:#4d4d4d;stroke-width:0.114401;stroke-dasharray:none;stop-color:#000000"
       id="rect8478-3"
       width="6.3499999"
       height="2.6288829"
       x="342.8111"
       y="184.14999" /><rect
       style="fill:#1e3765;fill-opacity:1;stroke:#4d4d4d;stroke-width:0.114401;stroke-dasharray:none;stop-color:#000000"
       id="rect8478-3-3"
       width="6.3499999"
       height="2.6288829"
       x="336.46109"
       y="184.14999" /><text
       xml:space="preserve"
       style="font-size:8.46667px;line-height:1.25;font-family:Roboto;-inkscape-font-specification:Roboto;stroke-width:0.264583"
       x="28.722965"
       y="18.955944"
       id="text15968-9"><tspan
         sodipodi:role="line"
         id="tspan15966-0"
         style="font-style:normal;font-variant:normal;font-weight:bold;font-stretch:normal;font-size:8.46667px;font-family:TradeGothic;-inkscape-font-specification:'TradeGothic, Bold';font-variant-ligatures:normal;font-variant-caps:normal;font-variant-numeric:normal;font-variant-east-asian:normal;fill:#f9f9f9;stroke-width:0.264583"
         x="28.722965"
         y="18.955944">Parking Tickets in Toronto</tspan></text><text
       xml:space="preserve"
       style="font-size:2.64583px;line-height:1.25;font-family:Roboto;-inkscape-font-specification:Roboto;stroke-width:0.264583"
       x="133.36842"
       y="16.376154"
       id="text15968-9-6"><tspan
         sodipodi:role="line"
         style="font-style:normal;font-variant:normal;font-weight:normal;font-stretch:normal;font-size:2.64583px;font-family:'TradeGothic LT';-inkscape-font-specification:'TradeGothic LT, Normal';font-variant-ligatures:normal;font-variant-caps:normal;font-variant-numeric:normal;font-variant-east-asian:normal;fill:#cccccc;stroke-width:0.264583"
         x="133.36842"
         y="16.376154"
         id="tspan23612">Over <tspan
   style="font-style:normal;font-variant:normal;font-weight:normal;font-stretch:normal;font-size:2.64583px;font-family:TradeGothic;-inkscape-font-specification:'TradeGothic, Normal';font-variant-ligatures:normal;font-variant-caps:normal;font-variant-numeric:normal;font-variant-east-asian:normal;fill:#ffffff"
   id="tspan3916">22.8 million</tspan> parking tickets were issued in the City of Toronto </tspan><tspan
         sodipodi:role="line"
         style="font-style:normal;font-variant:normal;font-weight:normal;font-stretch:normal;font-size:2.64583px;font-family:'TradeGothic LT';-inkscape-font-specification:'TradeGothic LT, Normal';font-variant-ligatures:normal;font-variant-caps:normal;font-variant-numeric:normal;font-variant-east-asian:normal;fill:#cccccc;stroke-width:0.264583"
         x="133.36842"
         y="19.701897"
         id="tspan3827">in the decade spanning 2011 to 2020, representing over <tspan
   style="font-style:normal;font-variant:normal;font-weight:normal;font-stretch:normal;font-size:2.64583px;font-family:TradeGothic;-inkscape-font-specification:'TradeGothic, Normal';font-variant-ligatures:normal;font-variant-caps:normal;font-variant-numeric:normal;font-variant-east-asian:normal;fill:#ffffff"
   id="tspan359">1 billion</tspan><tspan
   style="font-style:normal;font-variant:normal;font-weight:normal;font-stretch:normal;font-size:2.64583px;font-family:'TradeGothic LT';-inkscape-font-specification:'TradeGothic LT, Normal';font-variant-ligatures:normal;font-variant-caps:normal;font-variant-numeric:normal;font-variant-east-asian:normal;fill:#ffffff"
   id="tspan363"> </tspan></tspan><tspan
         sodipodi:role="line"
         style="font-style:normal;font-variant:normal;font-weight:normal;font-stretch:normal;font-size:2.64583px;font-family:'TradeGothic LT';-inkscape-font-specification:'TradeGothic LT, Normal';font-variant-ligatures:normal;font-variant-caps:normal;font-variant-numeric:normal;font-variant-east-asian:normal;fill:#cccccc;stroke-width:0.264583"
         x="133.36842"
         y="23.027639"
         id="tspan3829">dollars in fines. This map the shows the location of almost* all of </tspan><tspan
         sodipodi:role="line"
         style="font-style:normal;font-variant:normal;font-weight:normal;font-stretch:normal;font-size:2.64583px;font-family:'TradeGothic LT';-inkscape-font-specification:'TradeGothic LT, Normal';font-variant-ligatures:normal;font-variant-caps:normal;font-variant-numeric:normal;font-variant-east-asian:normal;fill:#cccccc;stroke-width:0.264583"
         x="133.36842"
         y="26.341248"
         id="tspan9351">these parking tickets.</tspan><tspan
         sodipodi:role="line"
         style="font-style:normal;font-variant:normal;font-weight:normal;font-stretch:normal;font-size:2.64583px;font-family:'TradeGothic LT';-inkscape-font-specification:'TradeGothic LT, Normal';font-variant-ligatures:normal;font-variant-caps:normal;font-variant-numeric:normal;font-variant-east-asian:normal;fill:#cccccc;stroke-width:0.264583"
         x="133.36842"
         y="29.648535"
         id="tspan3825" /></text><text
       xml:space="preserve"
       style="font-size:2.64583px;line-height:1.25;font-family:Roboto;-inkscape-font-specification:Roboto;stroke-width:0.264583"
       x="336.42728"
       y="198.45808"
       id="text15968-9-6-8"><tspan
         sodipodi:role="line"
         style="font-weight:normal;font-size:2.64583px;fill:#f9f9f9;stroke-width:0.264583"
         x="336.42728"
         y="198.45808"
         id="tspan23612-7" /><tspan
         sodipodi:role="line"
         style="font-style:normal;font-variant:normal;font-weight:normal;font-stretch:normal;font-size:2.64583px;font-family:'TradeGothic LT';-inkscape-font-specification:'TradeGothic LT, Normal';font-variant-ligatures:normal;font-variant-caps:normal;font-variant-numeric:normal;font-variant-east-asian:normal;fill:#e6e6e6;stroke-width:0.264583"
         x="336.42728"
         y="201.7717"
         id="tspan45455">Data on the locations of parking tickets are from the </tspan><tspan
         sodipodi:role="line"
         style="font-style:normal;font-variant:normal;font-weight:normal;font-stretch:normal;font-size:2.64583px;font-family:'TradeGothic LT';-inkscape-font-specification:'TradeGothic LT, Normal';font-variant-ligatures:normal;font-variant-caps:normal;font-variant-numeric:normal;font-variant-east-asian:normal;fill:#e6e6e6;stroke-width:0.264583"
         x="336.42728"
         y="205.0853"
         id="tspan45457">City of Toronto. We joined them to the City's centreline </tspan><tspan
         sodipodi:role="line"
         style="font-style:normal;font-variant:normal;font-weight:normal;font-stretch:normal;font-size:2.64583px;font-family:'TradeGothic LT';-inkscape-font-specification:'TradeGothic LT, Normal';font-variant-ligatures:normal;font-variant-caps:normal;font-variant-numeric:normal;font-variant-east-asian:normal;fill:#e6e6e6;stroke-width:0.264583"
         x="336.42728"
         y="208.39891"
         id="tspan45459">data representing streets in order to make this map*. </tspan><tspan
         sodipodi:role="line"
         style="font-style:normal;font-variant:normal;font-weight:normal;font-stretch:normal;font-size:2.64583px;font-family:'TradeGothic LT';-inkscape-font-specification:'TradeGothic LT, Normal';font-variant-ligatures:normal;font-variant-caps:normal;font-variant-numeric:normal;font-variant-east-asian:normal;fill:#e6e6e6;stroke-width:0.264583"
         x="336.42728"
         y="211.71251"
         id="tspan45469">Both sources were available as open data.</tspan></text><text
       xml:space="preserve"
       style="font-size:3.175px;line-height:1.25;font-family:Roboto;-inkscape-font-specification:Roboto;stroke-width:0.264583"
       x="380.16177"
       y="156.4644"
       id="text15968-2"><tspan
         sodipodi:role="line"
         id="tspan15966-8"
         style="font-style:normal;font-variant:normal;font-weight:bold;font-stretch:normal;font-size:3.175px;font-family:'TradeGothic LT';-inkscape-font-specification:'TradeGothic LT Bold';fill:#f9f9f9;stroke-width:0.264583"
         x="380.16177"
         y="156.4644">5km</tspan></text><text
       xml:space="preserve"
       style="font-size:3.43958px;line-height:1.25;font-family:Roboto;-inkscape-font-specification:Roboto;stroke-width:0.264583"
       x="351.71494"
       y="191.19846"
       id="text15968-2-7"><tspan
         sodipodi:role="line"
         id="tspan15966-8-3"
         style="font-style:normal;font-variant:normal;font-weight:bold;font-stretch:normal;font-size:3.43958px;font-family:'TradeGothic LT Bold';-inkscape-font-specification:'TradeGothic LT Bold, Bold';font-variant-ligatures:normal;font-variant-caps:normal;font-variant-numeric:normal;font-variant-east-asian:normal;fill:#f9f9f9;stroke-width:0.264583"
         x="351.71494"
         y="191.19846"># of Parking Tickets / 100m</tspan></text><text
       xml:space="preserve"
       style="font-size:3.175px;line-height:1.25;font-family:Roboto;-inkscape-font-specification:Roboto;stroke-width:0.264583"
       x="112.92537"
       y="371.59833"
       id="text15968-2-7-2"
       transform="rotate(-45)"><tspan
         sodipodi:role="line"
         id="tspan15966-8-3-6"
         style="font-style:normal;font-variant:normal;font-weight:normal;font-stretch:normal;font-size:3.175px;font-family:'TradeGothic LT';-inkscape-font-specification:'TradeGothic LT, Normal';font-variant-ligatures:normal;font-variant-caps:normal;font-variant-numeric:normal;font-variant-east-asian:normal;fill:#f9f9f9;stroke-width:0.264583"
         x="112.92537"
         y="371.59833">5</tspan></text><text
       xml:space="preserve"
       style="font-size:3.175px;line-height:1.25;font-family:Roboto;-inkscape-font-specification:Roboto;stroke-width:0.264583"
       x="149.06145"
       y="407.46817"
       id="text15968-2-7-2-5"
       transform="rotate(-45)"><tspan
         sodipodi:role="line"
         id="tspan15966-8-3-6-2"
         style="font-style:normal;font-variant:normal;font-weight:normal;font-stretch:normal;font-size:3.175px;font-family:'TradeGothic LT';-inkscape-font-specification:'TradeGothic LT';fill:#f9f9f9;stroke-width:0.264583"
         x="149.06145"
         y="407.46817">2,500</tspan></text><text
       xml:space="preserve"
       style="font-size:3.175px;line-height:1.25;font-family:Roboto;-inkscape-font-specification:Roboto;stroke-width:0.264583"
       x="153.28253"
       y="412.03003"
       id="text15968-2-7-2-5-5"
       transform="rotate(-45)"><tspan
         sodipodi:role="line"
         id="tspan15966-8-3-6-2-3"
         style="font-style:normal;font-variant:normal;font-weight:normal;font-stretch:normal;font-size:3.175px;font-family:'TradeGothic LT';-inkscape-font-specification:'TradeGothic LT';fill:#f9f9f9;stroke-width:0.264583"
         x="153.28253"
         y="412.03003">5,000</tspan></text><text
       xml:space="preserve"
       style="font-size:3.175px;line-height:1.25;font-family:Roboto;-inkscape-font-specification:Roboto;stroke-width:0.264583"
       x="143.91707"
       y="402.98764"
       id="text15968-2-7-2-5-6"
       transform="rotate(-45)"><tspan
         sodipodi:role="line"
         id="tspan15966-8-3-6-2-5"
         style="font-style:normal;font-variant:normal;font-weight:normal;font-stretch:normal;font-size:3.175px;font-family:'TradeGothic LT';-inkscape-font-specification:'TradeGothic LT';fill:#f9f9f9;stroke-width:0.264583"
         x="143.91707"
         y="402.98764">1,000</tspan></text><text
       xml:space="preserve"
       style="font-size:3.175px;line-height:1.25;font-family:Roboto;-inkscape-font-specification:Roboto;stroke-width:0.264583"
       x="139.86189"
       y="398.61493"
       id="text15968-2-7-2-5-6-8"
       transform="rotate(-45)"><tspan
         sodipodi:role="line"
         id="tspan15966-8-3-6-2-5-7"
         style="font-style:normal;font-variant:normal;font-weight:normal;font-stretch:normal;font-size:3.175px;font-family:'TradeGothic LT';-inkscape-font-specification:'TradeGothic LT';fill:#f9f9f9;stroke-width:0.264583"
         x="139.86189"
         y="398.61493">500</tspan></text><text
       xml:space="preserve"
       style="font-size:3.175px;line-height:1.25;font-family:Roboto;-inkscape-font-specification:Roboto;stroke-width:0.264583"
       x="135.59914"
       y="393.98892"
       id="text15968-2-7-2-5-6-8-9"
       transform="rotate(-45)"><tspan
         sodipodi:role="line"
         id="tspan15966-8-3-6-2-5-7-6"
         style="font-style:normal;font-variant:normal;font-weight:normal;font-stretch:normal;font-size:3.175px;font-family:'TradeGothic LT';-inkscape-font-specification:'TradeGothic LT';fill:#f9f9f9;stroke-width:0.264583"
         x="135.59914"
         y="393.98892">250</tspan></text><text
       xml:space="preserve"
       style="font-size:3.175px;line-height:1.25;font-family:Roboto;-inkscape-font-specification:Roboto;stroke-width:0.264583"
       x="130.50395"
       y="389.49936"
       id="text15968-2-7-2-5-6-8-9-0"
       transform="rotate(-45)"><tspan
         sodipodi:role="line"
         id="tspan15966-8-3-6-2-5-7-6-4"
         style="font-style:normal;font-variant:normal;font-weight:normal;font-stretch:normal;font-size:3.175px;font-family:'TradeGothic LT';-inkscape-font-specification:'TradeGothic LT';fill:#f9f9f9;stroke-width:0.264583"
         x="130.50395"
         y="389.49936">100</tspan></text><text
       xml:space="preserve"
       style="font-size:3.175px;line-height:1.25;font-family:Roboto;-inkscape-font-specification:Roboto;stroke-width:0.264583"
       x="126.38329"
       y="385.10254"
       id="text15968-2-7-2-5-6-8-9-0-1"
       transform="rotate(-45)"><tspan
         sodipodi:role="line"
         id="tspan15966-8-3-6-2-5-7-6-4-0"
         style="font-style:normal;font-variant:normal;font-weight:normal;font-stretch:normal;font-size:3.175px;font-family:'TradeGothic LT';-inkscape-font-specification:'TradeGothic LT';fill:#f9f9f9;stroke-width:0.264583"
         x="126.38329"
         y="385.10254">50</tspan></text><text
       xml:space="preserve"
       style="font-size:3.175px;line-height:1.25;font-family:Roboto;-inkscape-font-specification:Roboto;stroke-width:0.264583"
       x="122.1664"
       y="380.47433"
       id="text15968-2-7-2-5-6-8-9-0-1-4"
       transform="rotate(-45)"><tspan
         sodipodi:role="line"
         id="tspan15966-8-3-6-2-5-7-6-4-0-8"
         style="font-style:normal;font-variant:normal;font-weight:normal;font-stretch:normal;font-size:3.175px;font-family:'TradeGothic LT';-inkscape-font-specification:'TradeGothic LT';fill:#f9f9f9;stroke-width:0.264583"
         x="122.1664"
         y="380.47433">25</tspan></text><text
       xml:space="preserve"
       style="font-size:3.175px;line-height:1.25;font-family:Roboto;-inkscape-font-specification:Roboto;stroke-width:0.264583"
       x="117.07335"
       y="375.99686"
       id="text15968-2-7-2-5-6-8-9-0-1-4-7"
       transform="rotate(-45)"><tspan
         sodipodi:role="line"
         id="tspan15966-8-3-6-2-5-7-6-4-0-8-0"
         style="font-style:normal;font-variant:normal;font-weight:normal;font-stretch:normal;font-size:3.175px;font-family:'TradeGothic LT';-inkscape-font-specification:'TradeGothic LT';fill:#f9f9f9;stroke-width:0.264583"
         x="117.07335"
         y="375.99686">10</tspan></text><text
       xml:space="preserve"
       style="font-size:3.175px;line-height:1.25;font-family:Roboto;-inkscape-font-specification:Roboto;stroke-width:0.264583"
       x="425.54004"
       y="14.564241"
       id="text15968-2-80"
       transform="rotate(17)"><tspan
         sodipodi:role="line"
         id="tspan15966-8-4"
         style="font-style:normal;font-variant:normal;font-weight:bold;font-stretch:normal;font-size:3.175px;font-family:'TradeGothic LT Bold';-inkscape-font-specification:'TradeGothic LT Bold, Bold';font-variant-ligatures:normal;font-variant-caps:normal;font-variant-numeric:normal;font-variant-east-asian:normal;fill:#f9f9f9;stroke-width:0.264583"
         x="425.54004"
         y="14.564241">N</tspan></text><text
       xml:space="preserve"
       style="font-size:3.175px;line-height:1.25;font-family:Roboto;-inkscape-font-specification:Roboto;stroke-width:0.264583"
       x="398.64896"
       y="162.21741"
       id="text15968-2-8"><tspan
         sodipodi:role="line"
         id="tspan15966-8-8"
         style="font-style:normal;font-variant:normal;font-weight:bold;font-stretch:normal;font-size:3.175px;font-family:'TradeGothic LT';-inkscape-font-specification:'TradeGothic LT Bold';fill:#f9f9f9;stroke-width:0.264583"
         x="398.64896"
         y="162.21741">1km</tspan></text><path
       style="fill:#f2f2f2;stroke:#f2f2f2;stroke-width:1.016;stroke-linecap:butt;stroke-linejoin:miter;stroke-dasharray:none;stroke-opacity:1"
       d="m 360.18204,158.33088 h 9.24359"
       id="path17523" /><path
       style="fill:none;stroke:#999999;stroke-width:1.016;stroke-linecap:butt;stroke-linejoin:miter;stroke-dasharray:none;stroke-opacity:1"
       d="m 369.42563,158.33088 h 9.24359"
       id="path17523-2" /><path
       style="fill:none;stroke:#f2f2f2;stroke-width:1.016;stroke-linecap:butt;stroke-linejoin:miter;stroke-dasharray:none;stroke-opacity:1"
       d="m 378.66922,158.33088 h 9.2436"
       id="path17523-8" /><path
       style="fill:none;stroke:#f2f2f2;stroke-width:1.016;stroke-linecap:butt;stroke-linejoin:miter;stroke-dasharray:none;stroke-opacity:1"
       d="M 397.15641,158.33088 H 406.4"
       id="path17523-8-9" /><path
       style="fill:none;stroke:#f2f2f2;stroke-width:0.661458;stroke-linecap:butt;stroke-linejoin:miter;stroke-dasharray:none;stroke-opacity:1"
       d="m 402.90034,146.02037 h 3.45468"
       id="path17523-8-9-3"
       sodipodi:nodetypes="cc" /><path
       style="fill:none;stroke:#f2f2f2;stroke-width:0.661458;stroke-linecap:butt;stroke-linejoin:miter;stroke-dasharray:none;stroke-opacity:1"
       d="m 405.91918,136.95006 -2.70256,8.83969"
       id="path17523-8-9-8" /><path
       style="fill:none;stroke:#999999;stroke-width:1.016;stroke-linecap:butt;stroke-linejoin:miter;stroke-dasharray:none;stroke-opacity:1"
       d="m 387.91282,158.33088 h 9.24359"
       id="path17523-2-8" /><path
       style="fill:none;stroke:#f2f2f2;stroke-width:0.264583px;stroke-linecap:butt;stroke-linejoin:miter;stroke-opacity:1"
       d="m 360.18204,155.2885 h 18.48718"
       id="path19811" /><path
       style="fill:none;stroke:#f2f2f2;stroke-width:0.264583px;stroke-linecap:butt;stroke-linejoin:miter;stroke-opacity:1"
       d="M 387.91282,155.2885 H 406.4"
       id="path19811-6" /><path
       style="fill:none;stroke:#f2f2f2;stroke-width:0.264583px;stroke-linecap:butt;stroke-linejoin:miter;stroke-opacity:1"
       d="M 405.70699,161.37326 H 406.4"
       id="path19811-6-8"
       sodipodi:nodetypes="cc" /><path
       style="fill:none;stroke:#f2f2f2;stroke-width:0.264583px;stroke-linecap:butt;stroke-linejoin:miter;stroke-opacity:1"
       d="m 397.25254,161.15829 h 0.69301"
       id="path19811-6-8-3"
       sodipodi:nodetypes="cc" /><path
       style="fill:none;stroke:#cccccc;stroke-width:0.127;stroke-linecap:butt;stroke-linejoin:miter;stroke-dasharray:none;stroke-opacity:1"
       d="m 12.7,31.75 393.7,0"
       id="path24057"
       sodipodi:nodetypes="cc" /><path
       style="fill:none;stroke:#f2f2f2;stroke-width:0.127;stroke-linecap:butt;stroke-linejoin:miter;stroke-dasharray:none;stroke-opacity:1"
       d="M 12.700005,247.5865 C 149.86,247.65 281.20593,247.65 406.4,247.65"
       id="path24057-7"
       sodipodi:nodetypes="cc" /><text
       xml:space="preserve"
       style="font-size:1.85208px;line-height:1.25;font-family:Roboto;-inkscape-font-specification:Roboto;stroke-width:0.264583"
       x="336.52557"
       y="219.02364"
       id="text15968-9-6-9"><tspan
         sodipodi:role="line"
         style="font-style:normal;font-variant:normal;font-weight:normal;font-stretch:normal;font-size:1.85208px;font-family:'TradeGothic LT';-inkscape-font-specification:'TradeGothic LT, Normal';font-variant-ligatures:normal;font-variant-caps:normal;font-variant-numeric:normal;font-variant-east-asian:normal;fill:#e6e6e6;stroke-width:0.264583"
         x="336.52557"
         y="219.02364"
         id="tspan23612-3">*The data on parking tickets only indicate addresses, not XY coordinates. </tspan><tspan
         sodipodi:role="line"
         style="font-style:normal;font-variant:normal;font-weight:normal;font-stretch:normal;font-size:1.85208px;font-family:'TradeGothic LT';-inkscape-font-specification:'TradeGothic LT, Normal';font-variant-ligatures:normal;font-variant-caps:normal;font-variant-numeric:normal;font-variant-east-asian:normal;fill:#e6e6e6;stroke-width:0.264583"
         x="336.52557"
         y="221.34315"
         id="tspan25600">Some of the addresses (less than 5%) could not be linked to streets due </tspan><tspan
         sodipodi:role="line"
         style="font-style:normal;font-variant:normal;font-weight:normal;font-stretch:normal;font-size:1.85208px;font-family:'TradeGothic LT';-inkscape-font-specification:'TradeGothic LT, Normal';font-variant-ligatures:normal;font-variant-caps:normal;font-variant-numeric:normal;font-variant-east-asian:normal;fill:#e6e6e6;stroke-width:0.264583"
         x="336.52557"
         y="223.66269"
         id="tspan25602">missing numbers or incorrect spellings.</tspan><tspan
         sodipodi:role="line"
         style="font-style:normal;font-variant:normal;font-weight:normal;font-stretch:normal;font-size:1.85208px;font-family:'TradeGothic LT';-inkscape-font-specification:'TradeGothic LT, Normal';font-variant-ligatures:normal;font-variant-caps:normal;font-variant-numeric:normal;font-variant-east-asian:normal;fill:#e6e6e6;stroke-width:0.264583"
         x="336.52557"
         y="225.97778"
         id="tspan25598" /></text><text
       xml:space="preserve"
       style="font-size:1.85208px;line-height:1.25;font-family:Roboto;-inkscape-font-specification:Roboto;stroke-width:0.264583"
       x="336.34998"
       y="246.46573"
       id="text15968-9-6-9-5"><tspan
         sodipodi:role="line"
         style="font-style:normal;font-variant:normal;font-weight:normal;font-stretch:normal;font-size:1.85208px;font-family:'TradeGothic LT';-inkscape-font-specification:'TradeGothic LT, Normal';font-variant-ligatures:normal;font-variant-caps:normal;font-variant-numeric:normal;font-variant-east-asian:normal;fill:#e6e6e6;stroke-width:0.264583"
         x="336.34998"
         y="246.46573"
         id="tspan25598-2">Map by <tspan
   style="font-style:normal;font-variant:normal;font-weight:bold;font-stretch:normal;font-size:1.85208px;font-family:TradeGothic;-inkscape-font-specification:'TradeGothic, Bold';font-variant-ligatures:normal;font-variant-caps:normal;font-variant-numeric:normal;font-variant-east-asian:normal"
   id="tspan488">Jeff Allen</tspan> (2022)</tspan></text><g
       id="g7248"
       transform="matrix(0.01408644,0,0,-0.01408644,385.51108,250.24156)"><path
         d="m 1339.91,598.438 c -23.36,0 -42.29,-18.965 -42.29,-42.266 0,-23.32 18.96,-42.285 42.28,-42.285 23.28,0 42.23,18.965 42.23,42.285 0,23.301 -18.95,42.266 -42.22,42.266"
         style="fill:#ffffff;fill-opacity:1;fill-rule:nonzero;stroke:none"
         id="path7250" /><path
         d="m 1458.99,321.863 c -13.14,0 -23.81,-10.691 -23.81,-23.843 0,-13.165 10.67,-23.887 23.81,-23.887 13.19,0 23.92,10.722 23.92,23.887 0,13.152 -10.73,23.843 -23.92,23.843"
         style="fill:#ffffff;fill-opacity:1;fill-rule:nonzero;stroke:none"
         id="path7252" /><path
         d="m 1458.99,381.465 c -13.14,0 -23.81,-10.711 -23.81,-23.867 0,-13.184 10.67,-23.907 23.81,-23.907 13.19,0 23.92,10.723 23.92,23.907 0,13.156 -10.73,23.867 -23.92,23.867"
         style="fill:#ffffff;fill-opacity:1;fill-rule:nonzero;stroke:none"
         id="path7254" /><path
         d="m 1458.99,441.023 c -13.14,0 -23.81,-10.71 -23.81,-23.875 0,-13.156 10.67,-23.855 23.81,-23.855 13.19,0 23.92,10.699 23.92,23.855 0,13.165 -10.73,23.875 -23.92,23.875"
         style="fill:#ffffff;fill-opacity:1;fill-rule:nonzero;stroke:none"
         id="path7256" /><path
         d="m 1399.43,321.863 c -13.14,0 -23.87,-10.679 -23.88,-23.816 0.01,-13.211 10.74,-23.914 23.88,-23.914 13.19,0 23.92,10.722 23.92,23.887 0,13.152 -10.73,23.843 -23.92,23.843 z m 0,-10 c 7.68,0 13.92,-6.211 13.92,-13.843 0,-7.661 -6.24,-13.887 -13.92,-13.887 -7.65,0 -13.87,6.25 -13.88,13.902 0.01,7.629 6.23,13.828 13.88,13.828"
         style="fill:#ffffff;fill-opacity:1;fill-rule:nonzero;stroke:none"
         id="path7258" /><path
         d="m 1399.43,381.465 c -13.14,0 -23.87,-10.695 -23.88,-23.836 0.01,-13.242 10.74,-23.938 23.88,-23.938 13.19,0 23.92,10.723 23.92,23.907 0,13.156 -10.73,23.867 -23.92,23.867 z m 0,-10 c 7.68,0 13.92,-6.223 13.92,-13.867 0,-7.664 -6.24,-13.907 -13.92,-13.907 -7.65,0 -13.87,6.258 -13.88,13.926 0.01,7.637 6.23,13.848 13.88,13.848"
         style="fill:#ffffff;fill-opacity:1;fill-rule:nonzero;stroke:none"
         id="path7260" /><path
         d="m 1339.9,321.863 c -13.17,0 -23.87,-10.691 -23.87,-23.843 0,-13.165 10.7,-23.887 23.87,-23.887 13.1,0 23.79,10.703 23.82,23.836 -0.03,13.215 -10.72,23.894 -23.82,23.894"
         style="fill:#ffffff;fill-opacity:1;fill-rule:nonzero;stroke:none"
         id="path7262" /><path
         d="m 1339.9,381.465 c -13.17,0 -23.87,-10.711 -23.87,-23.867 0,-13.184 10.7,-23.907 23.87,-23.907 13.1,0 23.79,10.696 23.82,23.836 -0.03,13.243 -10.72,23.938 -23.82,23.938"
         style="fill:#ffffff;fill-opacity:1;fill-rule:nonzero;stroke:none"
         id="path7264" /><path
         d="m 1339.9,441.023 c -13.17,0 -23.87,-10.71 -23.87,-23.875 0,-13.156 10.7,-23.855 23.87,-23.855 13.15,0 23.82,10.699 23.82,23.855 0,13.165 -10.67,23.875 -23.82,23.875"
         style="fill:#ffffff;fill-opacity:1;fill-rule:nonzero;stroke:none"
         id="path7266" /><path
         d="m 1280.3,321.863 c -13.15,0 -23.86,-10.691 -23.86,-23.843 0,-13.165 10.71,-23.887 23.86,-23.887 13.18,0 23.9,10.722 23.9,23.887 0,13.152 -10.72,23.843 -23.9,23.843 z m 0,-10 c 7.67,0 13.9,-6.211 13.9,-13.843 0,-7.661 -6.23,-13.887 -13.9,-13.887 -7.64,0 -13.86,6.226 -13.86,13.887 0,7.632 6.22,13.843 13.86,13.843"
         style="fill:#ffffff;fill-opacity:1;fill-rule:nonzero;stroke:none"
         id="path7268" /><path
         d="m 1280.3,381.465 c -13.15,0 -23.86,-10.711 -23.86,-23.867 0,-13.184 10.71,-23.907 23.86,-23.907 13.18,0 23.9,10.723 23.9,23.907 0,13.156 -10.72,23.867 -23.9,23.867 z m 0,-10 c 7.67,0 13.9,-6.223 13.9,-13.867 0,-7.664 -6.23,-13.907 -13.9,-13.907 -7.64,0 -13.86,6.243 -13.86,13.907 0,7.644 6.22,13.867 13.86,13.867"
         style="fill:#ffffff;fill-opacity:1;fill-rule:nonzero;stroke:none"
         id="path7270" /><path
         d="m 1280.3,441.023 c -13.15,0 -23.86,-10.71 -23.86,-23.875 0,-13.156 10.71,-23.855 23.86,-23.855 13.18,0 23.9,10.699 23.9,23.855 0,13.165 -10.72,23.875 -23.9,23.875 z m 0,-10 c 7.67,0 13.9,-6.218 13.9,-13.875 0,-7.636 -6.23,-13.855 -13.9,-13.855 -7.64,0 -13.86,6.219 -13.86,13.855 0,7.657 6.22,13.875 13.86,13.875"
         style="fill:#ffffff;fill-opacity:1;fill-rule:nonzero;stroke:none"
         id="path7272" /><path
         d="m 1220.72,321.863 c -13.17,0 -23.9,-10.691 -23.9,-23.843 0,-13.165 10.73,-23.887 23.9,-23.887 13.18,0 23.9,10.722 23.9,23.887 0,13.152 -10.72,23.843 -23.9,23.843"
         style="fill:#ffffff;fill-opacity:1;fill-rule:nonzero;stroke:none"
         id="path7274" /><path
         d="m 1220.72,381.465 c -13.17,0 -23.9,-10.711 -23.9,-23.867 0,-13.184 10.73,-23.907 23.9,-23.907 13.18,0 23.9,10.723 23.9,23.907 0,13.156 -10.72,23.867 -23.9,23.867"
         style="fill:#ffffff;fill-opacity:1;fill-rule:nonzero;stroke:none"
         id="path7276" /><path
         d="m 1220.72,441.023 c -13.17,0 -23.9,-10.71 -23.9,-23.875 0,-13.156 10.73,-23.855 23.9,-23.855 13.18,0 23.9,10.699 23.9,23.855 0,13.165 -10.72,23.875 -23.9,23.875"
         style="fill:#ffffff;fill-opacity:1;fill-rule:nonzero;stroke:none"
         id="path7278" /><path
         d="m 1220.72,500.586 c -13.17,0 -23.9,-10.676 -23.9,-23.809 0,-13.191 10.73,-23.925 23.9,-23.925 13.18,0 23.9,10.734 23.9,23.925 0,13.133 -10.72,23.809 -23.9,23.809"
         style="fill:#ffffff;fill-opacity:1;fill-rule:nonzero;stroke:none"
         id="path7280" /><path
         d="m 1339.9,500.586 c -13.17,0 -23.87,-10.676 -23.87,-23.809 0,-13.191 10.7,-23.925 23.87,-23.925 13.15,0 23.82,10.734 23.82,23.925 0,13.133 -10.67,23.809 -23.82,23.809"
         style="fill:#ffffff;fill-opacity:1;fill-rule:nonzero;stroke:none"
         id="path7282" /><path
         d="m 1339.91,611.738 c 13.14,0 23.81,10.723 23.81,23.875 0,13.157 -10.67,23.86 -23.82,23.86 -13.17,0 -23.87,-10.703 -23.87,-23.86 0,-13.152 10.68,-23.875 23.81,-23.875"
         style="fill:#ffffff;fill-opacity:1;fill-rule:nonzero;stroke:none"
         id="path7284" /><path
         d="m 1339.9,719.055 c -13.17,0 -23.87,-10.696 -23.87,-23.86 0,-13.183 10.7,-23.894 23.87,-23.894 13.15,0 23.82,10.711 23.82,23.894 0,13.164 -10.67,23.86 -23.82,23.86"
         style="fill:#ffffff;fill-opacity:1;fill-rule:nonzero;stroke:none"
         id="path7286" /><path
         d="m 1220.72,560.176 c -13.17,0 -23.9,-10.703 -23.9,-23.887 0,-13.164 10.73,-23.867 23.9,-23.867 13.18,0 23.9,10.703 23.9,23.867 0,13.184 -10.72,23.887 -23.9,23.887"
         style="fill:#ffffff;fill-opacity:1;fill-rule:nonzero;stroke:none"
         id="path7288" /><path
         d="m 1161.14,321.863 c -13.19,0 -23.92,-10.691 -23.92,-23.843 0,-13.165 10.73,-23.887 23.92,-23.887 13.16,0 23.86,10.722 23.86,23.887 0,13.152 -10.7,23.843 -23.86,23.843 z m 0,-10 c 7.64,0 13.86,-6.211 13.86,-13.843 0,-7.661 -6.22,-13.887 -13.86,-13.887 -7.67,0 -13.92,6.226 -13.92,13.887 0,7.632 6.25,13.843 13.92,13.843"
         style="fill:#ffffff;fill-opacity:1;fill-rule:nonzero;stroke:none"
         id="path7290" /><path
         d="m 1161.14,381.465 c -13.19,0 -23.92,-10.711 -23.92,-23.867 0,-13.184 10.73,-23.907 23.92,-23.907 13.16,0 23.86,10.723 23.86,23.907 0,13.156 -10.7,23.867 -23.86,23.867 z m 0,-10 c 7.64,0 13.86,-6.223 13.86,-13.867 0,-7.664 -6.22,-13.907 -13.86,-13.907 -7.67,0 -13.92,6.243 -13.92,13.907 0,7.644 6.25,13.867 13.92,13.867"
         style="fill:#ffffff;fill-opacity:1;fill-rule:nonzero;stroke:none"
         id="path7292" /><path
         d="m 1161.14,441.023 c -13.19,0 -23.92,-10.71 -23.92,-23.875 0,-13.156 10.73,-23.855 23.92,-23.855 13.16,0 23.86,10.699 23.86,23.855 0,13.165 -10.7,23.875 -23.86,23.875 z m 0,-10 c 7.64,0 13.86,-6.218 13.86,-13.875 0,-7.636 -6.22,-13.855 -13.86,-13.855 -7.67,0 -13.92,6.219 -13.92,13.855 0,7.657 6.25,13.875 13.92,13.875"
         style="fill:#ffffff;fill-opacity:1;fill-rule:nonzero;stroke:none"
         id="path7294" /><path
         d="m 1061.88,321.863 c -13.17,0 -23.9,-10.691 -23.9,-23.843 0,-13.165 10.73,-23.887 23.9,-23.887 13.14,0 23.83,10.722 23.83,23.887 0,13.152 -10.69,23.843 -23.83,23.843"
         style="fill:#ffffff;fill-opacity:1;fill-rule:nonzero;stroke:none"
         id="path7296" /><path
         d="m 1101.58,381.465 c -13.19,0 -23.91,-10.711 -23.91,-23.867 0,-13.184 10.72,-23.907 23.91,-23.907 13.13,0 23.8,10.723 23.8,23.907 0,13.156 -10.67,23.867 -23.8,23.867"
         style="fill:#ffffff;fill-opacity:1;fill-rule:nonzero;stroke:none"
         id="path7298" /><path
         d="m 1101.58,500.586 c -13.19,0 -23.91,-10.691 -23.91,-23.84 0,-13.183 10.72,-23.894 23.91,-23.894 13.13,0 23.8,10.711 23.8,23.894 0,13.149 -10.67,23.84 -23.8,23.84"
         style="fill:#ffffff;fill-opacity:1;fill-rule:nonzero;stroke:none"
         id="path7300" /><path
         d="m 1061.88,441.023 c -13.17,0 -23.9,-10.71 -23.9,-23.875 0,-13.156 10.73,-23.855 23.9,-23.855 13.14,0 23.83,10.699 23.83,23.855 0,13.165 -10.69,23.875 -23.83,23.875"
         style="fill:#ffffff;fill-opacity:1;fill-rule:nonzero;stroke:none"
         id="path7302" /><path
         d="m 288.328,555.637 c -4.644,13.718 -10.699,19.578 -20.39,19.578 -9.891,0 -15.34,-6.055 -15.34,-15.945 0,-22.004 62.175,-23.625 62.175,-69.25 0,-25.032 -17.168,-41.582 -46.433,-41.582 -22.61,0 -40.176,12.316 -47.637,40.988 l 27.449,5.847 c 3.235,-17.558 13.325,-23.82 21.606,-23.82 9.683,0 17.156,6.457 17.156,17.363 0,27.454 -62.18,27.864 -62.18,68.633 0,25.031 14.946,40.781 43.813,40.781 24.82,0 39.969,-14.734 44.812,-35.332 l -25.031,-7.261"
         style="fill:#ffffff;fill-opacity:1;fill-rule:nonzero;stroke:none"
         id="path7304" /><path
         d="m 362.988,493.66 c 0,-16.148 7.071,-20.594 18.172,-20.594 11.106,0 18.164,4.446 18.164,20.594 v 9.692 h 27.864 v -6.055 c 0,-35.942 -18.973,-48.859 -46.028,-48.859 -27.051,0 -46.023,12.917 -46.023,48.859 v 52.078 c 0,35.938 18.972,48.855 46.023,48.855 27.055,0 46.028,-12.917 46.028,-48.855 v -0.398 h -27.864 v 4.031 c 0,16.152 -7.058,20.597 -18.164,20.597 -11.101,0 -18.172,-4.445 -18.172,-20.597 V 493.66"
         style="fill:#ffffff;fill-opacity:1;fill-rule:nonzero;stroke:none"
         id="path7306" /><path
         d="m 448.77,450.461 v 145.75 h 27.863 v -58.145 h 39.363 v 58.145 h 27.852 v -145.75 h -27.852 v 62.977 H 476.633 V 450.461 H 448.77"
         style="fill:#ffffff;fill-opacity:1;fill-rule:nonzero;stroke:none"
         id="path7308" /><path
         d="m 594.102,493.66 c 0,-16.148 7.07,-20.594 18.171,-20.594 11.106,0 18.165,4.446 18.165,20.594 v 59.348 c 0,16.152 -7.059,20.597 -18.165,20.597 -11.101,0 -18.171,-4.445 -18.171,-20.597 z m -27.852,55.715 c 0,35.938 18.977,48.855 46.023,48.855 27.051,0 46.028,-12.917 46.028,-48.855 v -52.078 c 0,-35.942 -18.977,-48.859 -46.028,-48.859 -27.046,0 -46.023,12.917 -46.023,48.859 v 52.078"
         style="fill:#ffffff;fill-opacity:1;fill-rule:nonzero;stroke:none"
         id="path7310" /><path
         d="m 705.73,493.66 c 0,-16.148 7.075,-20.594 18.176,-20.594 11.106,0 18.164,4.446 18.164,20.594 v 59.348 c 0,16.152 -7.058,20.597 -18.164,20.597 -11.101,0 -18.176,-4.445 -18.176,-20.597 z m -27.847,55.715 c 0,35.938 18.972,48.855 46.023,48.855 27.051,0 46.028,-12.917 46.028,-48.855 v -52.078 c 0,-35.942 -18.977,-48.859 -46.028,-48.859 -27.051,0 -46.023,12.917 -46.023,48.859 v 52.078"
         style="fill:#ffffff;fill-opacity:1;fill-rule:nonzero;stroke:none"
         id="path7312" /><path
         d="m 791.531,450.461 v 145.75 h 27.856 V 475.09 h 44.824 v -24.629 h -72.68"
         style="fill:#ffffff;fill-opacity:1;fill-rule:nonzero;stroke:none"
         id="path7314" /><path
         d="m 252.188,319.355 c 0,-16.152 7.07,-20.593 18.171,-20.593 11.106,0 18.164,4.441 18.164,20.593 v 59.344 c 0,16.156 -7.058,20.598 -18.164,20.598 -11.101,0 -18.171,-4.442 -18.171,-20.598 z m -27.852,55.711 c 0,35.942 18.977,48.86 46.023,48.86 27.051,0 46.028,-12.918 46.028,-48.86 v -52.078 c 0,-35.937 -18.977,-48.855 -46.028,-48.855 -27.046,0 -46.023,12.918 -46.023,48.855 v 52.078"
         style="fill:#ffffff;fill-opacity:1;fill-rule:nonzero;stroke:none"
         id="path7316" /><path
         d="m 337.988,276.152 v 145.75 h 72.676 V 397.273 H 365.84 V 363.77 h 35.129 V 339.141 H 365.84 v -62.989 h -27.852"
         style="fill:#ffffff;fill-opacity:1;fill-rule:nonzero;stroke:none"
         id="path7318" /><path
         d="m 496.418,319.355 c 0,-16.152 7.066,-20.593 18.172,-20.593 11.101,0 18.164,4.441 18.164,20.593 v 9.688 h 27.859 v -6.055 c 0,-35.937 -18.972,-48.855 -46.023,-48.855 -27.051,0 -46.027,12.918 -46.027,48.855 v 52.078 c 0,35.942 18.976,48.86 46.027,48.86 27.051,0 46.023,-12.918 46.023,-48.86 v -0.398 h -27.859 v 4.031 c 0,16.156 -7.063,20.598 -18.164,20.598 -11.106,0 -18.172,-4.442 -18.172,-20.598 v -59.344"
         style="fill:#ffffff;fill-opacity:1;fill-rule:nonzero;stroke:none"
         id="path7320" /><path
         d="m 582.188,276.152 v 145.75 h 27.863 v -145.75 h -27.863"
         style="fill:#ffffff;fill-opacity:1;fill-rule:nonzero;stroke:none"
         id="path7322" /><path
         d="m 721.309,421.902 v -24.629 h -32.5 V 276.152 h -27.852 v 121.121 h -32.512 v 24.629 h 92.864"
         style="fill:#ffffff;fill-opacity:1;fill-rule:nonzero;stroke:none"
         id="path7324" /><path
         d="m 739.883,276.152 v 145.75 h 27.859 v -145.75 h -27.859"
         style="fill:#ffffff;fill-opacity:1;fill-rule:nonzero;stroke:none"
         id="path7326" /><path
         d="m 791.73,276.152 v 145.75 h 76.305 V 397.273 H 819.578 V 363.77 h 36.945 v -24.629 h -36.945 v -38.36 h 50.473 V 276.152 H 791.73"
         style="fill:#ffffff;fill-opacity:1;fill-rule:nonzero;stroke:none"
         id="path7328" /><path
         d="m 953.633,381.328 c -4.649,13.731 -10.703,19.578 -20.391,19.578 -9.89,0 -15.344,-6.051 -15.344,-15.945 0,-22 62.18,-23.613 62.18,-69.238 0,-25.039 -17.168,-41.59 -46.433,-41.59 -22.61,0 -40.176,12.312 -47.649,40.984 l 27.461,5.852 c 3.231,-17.563 13.32,-23.821 21.602,-23.821 9.687,0 17.16,6.457 17.16,17.364 0,27.453 -62.18,27.851 -62.18,68.633 0,25.031 14.941,40.781 43.809,40.781 24.824,0 39.968,-14.738 44.812,-35.332 l -25.027,-7.266"
         style="fill:#ffffff;fill-opacity:1;fill-rule:nonzero;stroke:none"
         id="path7330" /></g></g></svg>
